<svg version="1.1" xmlns="http://www.w3.org/2000/svg" width="48" height="48">
    <defs>
        <linearGradient x1="11.68966" y1="11.68966" x2="57.52354" y2="57.52354"
            gradientUnits="userSpaceOnUse" id="color-1">
            <stop offset="0" stop-color="#000000" stop-opacity="0.15"></stop>
            <stop offset="1" stop-color="#000000" stop-opacity="0"></stop>
        </linearGradient>
        <filter id="dropshadow-base">
            <feColorMatrix type="matrix"
                values="0 0 0 0 0  0 0 0 0 0  0 0 0 0 0  0 0 0 .8 0"></feColorMatrix>
            <feOffset dx="0" dy="1"></feOffset>
            <feGaussianBlur stdDeviation="1"></feGaussianBlur>
            <feComposite in="SourceGraphic"></feComposite>
        </filter>
        <filter id="dropshadow-banner" x="-10%" y="-10%" width="120%" height="130%">
            <feColorMatrix type="matrix"
                values="0 0 0 0 0  0 0 0 0 0  0 0 0 0 0  0 0 0 .4 0"></feColorMatrix>
            <feOffset dx="0" dy="1"></feOffset>
            <feGaussianBlur stdDeviation="0.5"></feGaussianBlur>
            <feComposite in="SourceGraphic"></feComposite>
        </filter>
    </defs>
    <g fill="none" fill-rule="nonzero" stroke="none" stroke-width="none" stroke-linecap="butt"
        stroke-linejoin="miter" stroke-miterlimit="10" stroke-dasharray="" stroke-dashoffset="0"
        font-family="none" font-weight="none" font-size="none" text-anchor="none"
        style="mix-blend-mode: normal">
        <path
            d="M3,24c0,-11.59798 9.40202,-21 21,-21c11.59798,0 21,9.40202 21,21c0,11.59798 -9.40202,21 -21,21c-11.59798,0 -21,-9.40202 -21,-21z"
            id="base 1 1" fill="#e91e63" stroke-width="1" filter="url(#dropshadow-base)"></path>
        <path
            d="M14.15173,11.68966c-1.36029,0 -2.44976,1.10178 -2.44976,2.46207l-0.01231,22.15861l8.30889,8.30889c1.29536,0.2499 2.63313,0.38077 4.00145,0.38077c11.59798,0 21,-9.40202 21,-21c0,-0.77854 -0.04237,-1.54718 -0.12492,-2.30375l-9.28566,-9.28566c0.00139,0.00139 0.00279,0.00279 0.00418,0.00419l-0.00419,-0.00419c-0.44548,-0.44548 -1.061,-0.72092 -1.74114,-0.72092l-19.69653,0z"
            fill="url(#color-1)" stroke-width="1"></path>
        <path
            d="M33.84827,11.68966l-19.69654,0c-1.36029,0 -2.44976,1.10178 -2.44976,2.46207l-0.01231,22.15861l4.92414,-4.92414l17.23447,0c1.36029,0 2.46207,-1.10178 2.46207,-2.46207l0,-14.77241c0,-1.36029 -1.10178,-2.46207 -2.46207,-2.46207z M25.23103,22.76897l-2.46207,0l0,-2.46207l2.46207,0z M30.15517,22.76897l-2.46207,0l0,-2.46207l2.46207,0z M20.3069,22.76897l-2.46207,0l0,-2.46207l2.46207,0z"
            fill="#ffffff" stroke-width="0"></path>
    </g>
</svg>